<svg width="100" height="100" viewBox="0 0 100 100" fill="none" xmlns="http://www.w3.org/2000/svg">
<path d="M49.9999 58.8249L40.3458 68.4749C41.8558 72.0359 42.0802 76.0112 40.9807 79.7195C39.8811 83.4278 37.526 86.6382 34.319 88.8005C31.112 90.9628 27.2528 91.9424 23.4027 91.5713C19.5527 91.2003 15.9515 89.5017 13.2165 86.7667C10.4815 84.0316 8.78293 80.4305 8.41186 76.5805C8.04079 72.7304 9.02035 68.8712 11.1827 65.6642C13.345 62.4572 16.5554 60.1021 20.2637 59.0025C23.972 57.903 27.9473 58.1274 31.5083 59.6374L41.1624 49.9874L17.5416 26.3708C15.9793 24.808 15.1017 22.6888 15.1017 20.4791C15.1017 18.2694 15.9793 16.1502 17.5416 14.5874L20.4916 11.6416L49.9999 41.1458L79.5041 11.6416L82.4541 14.5874C84.0164 16.1502 84.894 18.2694 84.894 20.4791C84.894 22.6888 84.0164 24.808 82.4541 26.3708L58.8374 49.9874L68.4916 59.6374C72.0526 58.1274 76.0278 57.903 79.7362 59.0025C83.4445 60.1021 86.6549 62.4572 88.8172 65.6642C90.9795 68.8712 91.9591 72.7304 91.588 76.5805C91.2169 80.4305 89.5183 84.0316 86.7833 86.7667C84.0483 89.5017 80.4472 91.2003 76.5971 91.5713C72.7471 91.9424 68.8879 90.9628 65.6808 88.8005C62.4738 86.6382 60.1187 83.4278 59.0192 79.7195C57.9196 76.0112 58.1441 72.0359 59.6541 68.4749L49.9999 58.8249ZM24.9999 83.3208C27.2101 83.3208 29.3297 82.4428 30.8925 80.88C32.4553 79.3172 33.3333 77.1976 33.3333 74.9874C33.3333 72.7773 32.4553 70.6577 30.8925 69.0949C29.3297 67.5321 27.2101 66.6541 24.9999 66.6541C22.7898 66.6541 20.6702 67.5321 19.1074 69.0949C17.5446 70.6577 16.6666 72.7773 16.6666 74.9874C16.6666 77.1976 17.5446 79.3172 19.1074 80.88C20.6702 82.4428 22.7898 83.3208 24.9999 83.3208ZM74.9999 83.3208C77.2101 83.3208 79.3297 82.4428 80.8925 80.88C82.4553 79.3172 83.3333 77.1976 83.3333 74.9874C83.3333 72.7773 82.4553 70.6577 80.8925 69.0949C79.3297 67.5321 77.2101 66.6541 74.9999 66.6541C72.7898 66.6541 70.6702 67.5321 69.1074 69.0949C67.5446 70.6577 66.6666 72.7773 66.6666 74.9874C66.6666 77.1976 67.5446 79.3172 69.1074 80.88C70.6702 82.4428 72.7898 83.3208 74.9999 83.3208Z" fill="black"/>
</svg>
